<svg xmlns="http://www.w3.org/2000/svg" viewBox="0 0 44 44"><title>camera-video@1x</title><g id="Layer_2" data-name="Layer 2"><g id="Electronics"><g id="Camera_with_Film_Strip_2x.png" data-name="Camera with Film Strip@2x.png"><path d="M30,28a1,1,0,1,0,1,1A1,1,0,0,0,30,28ZM18,22a8,8,0,1,0,8,8A8,8,0,0,0,18,22Zm0,14a6,6,0,1,1,6-6A6,6,0,0,1,18,36ZM38,10h2V8H38ZM30,22a2,2,0,1,0,2,2A2,2,0,0,0,30,22Zm8-8h2V12H38ZM18,26a4,4,0,1,0,4,4A4,4,0,0,0,18,26Zm0,6a2,2,0,1,1,2-2A2,2,0,0,1,18,32ZM40,4H38V6h2ZM12,10h2V8H12ZM38,28h2V26H38Zm2-6H38v2h2Zm-8-4H28c-3,0-3-4-7-4H15c-4,0-4,4-7,4H4a4,4,0,0,0-4,4V40a4,4,0,0,0,4,4H32a4,4,0,0,0,4-4V22A4,4,0,0,0,32,18Zm2,22a2,2,0,0,1-2,2H4a2,2,0,0,1-2-2V22a2,2,0,0,1,2-2H8c4,0,4-4,7-4h6c3,0,3,4,7,4h4a2,2,0,0,1,2,2ZM42,0H10A2,2,0,0,0,8,2V12a1,1,0,0,0,2,0V4a2,2,0,0,1,2-2h4v9a1,1,0,0,0,2,0V2H34V15a1,1,0,0,0,2,0V2h4a2,2,0,0,1,2,2V17H39a1,1,0,0,0,0,2h3V32a2,2,0,0,1-2,2H39a1,1,0,0,0,0,2h3a2,2,0,0,0,2-2V2A2,2,0,0,0,42,0ZM14,4H12V6h2ZM38,32h2V30H38Z"/></g></g></g></svg>